<svg width="32" height="32" viewBox="0 0 32 32" fill="none" xmlns="http://www.w3.org/2000/svg">
<g id="Group">
<path id="Vector" fill-rule="evenodd" clip-rule="evenodd" d="M0 16C0 7.16344 7.16345 0 16 0C24.8366 0 32 7.16344 32 16C32 24.8366 24.8366 32 16 32C7.16345 32 0 24.8366 0 16Z" fill="#1B9D00"/>
<g id="Group 3">
<path id="Vector_2" fill-rule="evenodd" clip-rule="evenodd" d="M6.15366 10.2772C6.10522 10.9284 6.04718 12.0745 6.60211 12.192C7.27335 12.2564 6.9032 11.0593 7.14618 10.8422C7.1921 10.7349 7.27679 10.7344 7.28378 10.8697V11.8851C7.27767 12.2153 7.49537 12.3126 7.66448 12.3808C7.84052 12.3672 7.95802 12.3731 8.02699 12.5439L8.10955 14.3003C8.10955 14.3003 8.51776 14.4168 8.5372 13.3124C8.5567 12.6639 8.40725 12.1211 8.49488 11.9949C8.49794 11.8709 8.65673 11.8635 8.76681 11.924C8.9423 12.0473 9.02044 12.1997 9.29313 12.1388C9.70801 12.0248 9.95744 11.8236 9.96355 11.5059C9.93931 11.204 9.90534 10.9021 9.77419 10.6002C9.79248 10.5453 9.69408 10.4031 9.71232 10.3482C9.78691 10.4646 9.90037 10.4549 9.92615 10.3482C9.85555 10.1162 9.74596 9.89386 9.56833 9.7976C9.42156 9.66868 9.20669 9.69503 9.12801 9.96399C9.09159 10.2739 9.24006 10.6421 9.46639 10.9423C9.51444 11.0595 9.58198 11.2544 9.55228 11.4299C9.43188 11.4984 9.31142 11.4698 9.21052 11.3636C9.21052 11.3636 8.88027 11.1166 8.88027 11.0618C8.96791 10.5023 8.89971 10.4389 8.85117 10.2836C8.81721 10.0692 8.71521 10.0005 8.63259 9.85412C8.54998 9.76679 8.43821 9.76679 8.3848 9.85412C8.23879 10.1065 8.30689 10.6481 8.41232 10.8908C8.48855 11.1139 8.60496 11.2539 8.54992 11.2539C8.50466 11.38 8.41101 11.3509 8.34287 11.2053C8.24557 10.9045 8.22607 10.4557 8.22607 10.2536C8.19691 10.003 8.16481 9.46854 7.99941 9.33275C7.89851 9.19577 7.74895 9.26257 7.69669 9.38763C7.68583 9.63634 7.68468 9.88499 7.7128 10.1142C7.82621 10.5162 7.86187 10.8697 7.91691 11.2813C7.9322 11.8328 7.59715 11.5206 7.61244 11.2472C7.6897 10.8921 7.66966 10.3332 7.60097 10.1915C7.54659 10.0498 7.48232 10.0149 7.34996 10.0382C7.24485 10.0318 6.9744 10.3263 6.89845 10.8147C6.89845 10.8147 6.83369 11.0661 6.80611 11.2893C6.76898 11.5416 6.60244 11.7196 6.48559 11.2538C6.38468 10.9154 6.32265 10.082 6.1536 10.2772L6.15366 10.2772Z" fill="white"/>
<path id="Vector_3" fill-rule="evenodd" clip-rule="evenodd" d="M7.97783 12.9491C7.3855 13.2378 6.81265 13.5071 6.22998 13.7862C6.25128 13.3911 7.06099 12.678 7.61314 12.668C7.97254 12.678 7.88222 12.8068 7.97783 12.9491V12.9491Z" fill="white"/>
<path id="Vector_4" fill-rule="evenodd" clip-rule="evenodd" d="M7.67153 13.4952C6.75037 15.8629 9.82864 16.1928 10.1726 13.5922C10.205 13.4855 10.3348 13.3788 10.3575 13.5534C10.2862 15.908 7.97649 16.0698 7.584 15.329C7.48675 15.1544 7.45749 14.7663 7.44777 14.5334C7.38934 14.0709 7.14614 14.2488 7.10721 14.708C7.06822 14.9636 7.07799 15.0348 7.07799 15.2806C7.20123 17.1404 10.176 16.3415 10.6593 14.8051C10.9155 13.9544 10.6171 13.327 10.7565 13.3302C11.0518 13.6472 11.4636 13.3722 11.5545 13.2623C11.5935 13.2073 11.6908 13.1718 11.7589 13.2429C11.9892 13.4079 12.3948 13.3301 12.4791 13.0391C12.5278 12.7544 12.5667 12.4601 12.5764 12.1561C12.3882 12.2144 12.2488 12.2531 12.2358 12.3308L12.1969 12.5831C12.1807 12.664 12.0184 12.6671 12.012 12.5636C11.9406 12.2402 11.6455 12.1981 11.467 12.6995C11.3469 12.7965 11.1297 12.816 11.1069 12.6704C11.1361 12.334 10.9998 12.2887 10.7274 12.4472C10.6398 11.7809 10.5522 11.1438 10.4646 10.4774C10.5782 10.4742 10.682 10.5582 10.7859 10.4289C10.6722 10.0764 10.4322 9.35506 10.2992 9.30328C10.2343 9.2257 10.179 9.27421 10.0948 9.29359C9.9521 9.33889 9.81908 9.46182 9.86118 9.70116C10.0299 10.7232 10.1402 11.5028 10.3089 12.5249C10.3348 12.6445 10.2343 12.8029 10.1045 12.7867C9.88395 12.638 9.82897 12.3372 9.45258 12.3501C9.18006 12.3533 8.86855 12.6477 8.82972 12.9324C8.78429 13.1587 8.76802 13.4045 8.82961 13.6019C9.02111 13.8315 9.25143 13.8089 9.45253 13.7572C9.61798 13.6893 9.75416 13.5243 9.81258 13.5631C9.85157 13.6116 9.82225 14.1549 9.034 14.5722C8.5572 14.7856 8.1776 14.8342 7.97333 14.4461C7.84681 14.2034 7.98304 13.2816 7.67153 13.4952V13.4952Z" fill="white"/>
<path id="Vector_5" fill-rule="evenodd" clip-rule="evenodd" d="M11.5789 11.0882C11.7638 11.0202 12.6398 10.0208 12.6398 10.0208C12.5943 9.98202 12.5538 9.95289 12.5083 9.91407C12.4596 9.87204 12.4646 9.83 12.5083 9.78792C12.7257 9.66182 12.6559 9.38524 12.5424 9.25915C12.3543 9.17498 12.1904 9.20253 12.0704 9.26394C11.9179 9.40953 11.8823 9.64233 12.0024 9.78792C12.1192 9.84291 12.2359 9.961 12.158 10.0257C11.7997 10.4073 10.8183 11.0656 10.9319 11.0882C10.9561 11.1205 11.5596 11.1189 11.5789 11.0882ZM6.2893 14.6255C5.9608 15.1473 5.93219 15.9269 6.11348 16.1593C6.2098 16.2691 6.36804 16.3172 6.48511 16.2828C6.69151 16.1935 6.78182 15.7766 6.73284 15.6241C6.66393 15.5166 6.60971 15.4995 6.54091 15.591C6.39567 15.885 6.33538 15.6833 6.32266 15.519C6.30038 15.2074 6.32981 14.9204 6.36372 14.6931C6.39987 14.4602 6.36318 14.5314 6.2893 14.6255ZM20.3269 13.7897C20.0093 13.108 19.5696 12.4344 19.4297 12.1756C19.2898 11.9167 18.2336 10.3883 18.0782 10.2165C17.735 9.80991 18.6353 10.3858 17.9643 9.57858C17.7084 9.35971 17.6935 9.34637 17.4812 9.16779C17.3741 9.092 17.1125 8.95355 17.0662 9.18303C17.0429 9.38541 17.0554 9.49511 17.0895 9.66362C17.1157 9.77594 17.2798 9.96405 17.3605 10.073C18.4321 11.5093 19.3823 12.9597 20.2986 14.7834C20.4433 14.7148 20.4116 13.9038 20.327 13.7897H20.3269Z" fill="white"/>
<path id="Vector_6" fill-rule="evenodd" clip-rule="evenodd" d="M18.9334 16.0703C18.8709 16.1402 19.0876 16.4392 19.3691 16.4388C19.84 16.3844 20.2545 16.1207 20.6383 15.4264C20.741 15.2645 20.9214 14.9183 20.9267 14.6497C20.9626 13.0748 20.8476 11.8494 20.611 10.7111C20.5958 10.6003 20.605 10.4699 20.6239 10.4367C20.6544 10.4004 20.7578 10.4369 20.8126 10.3472C20.8931 10.2653 20.5989 9.58661 20.4312 9.32522C20.3717 9.20849 20.3509 9.13052 20.2523 9.33894C20.1486 9.50826 20.079 9.80379 20.0871 10.0799C20.3118 11.6307 20.3808 12.9872 20.5276 14.538C20.5396 14.6879 20.5174 14.9059 20.4174 14.9928C20.0476 15.3778 19.5138 15.8518 18.9334 16.0703ZM25.2942 16.0621C24.9562 16.2568 24.9558 16.4809 25.2291 16.489C25.6999 16.4345 26.2563 16.3955 26.64 15.8177C26.7427 15.6558 26.8647 15.218 26.87 14.9494C26.9059 13.3746 26.8494 12.1992 26.6127 11.061C26.5976 10.9501 26.5484 10.6949 26.5672 10.6616C26.5977 10.5837 26.7512 10.6701 26.8061 10.5804C26.8865 10.4985 26.4087 9.88638 26.2409 9.62499C26.1814 9.50831 26.1607 9.43035 26.0621 9.63871C25.9584 9.80809 25.9222 10.1119 25.9637 10.3798C26.2134 12.0636 26.3992 13.3287 26.4376 14.8211C26.416 14.9628 26.4107 15.0392 26.3441 15.2176C26.1967 15.406 26.0334 15.6415 25.8803 15.7553C25.7273 15.8691 25.4006 15.9778 25.2942 16.0621V16.0621Z" fill="white"/>
<path id="Vector_7" fill-rule="evenodd" clip-rule="evenodd" d="M25.5479 14.5522C25.544 14.1584 25.5535 13.8184 25.5405 13.5247C25.5275 13.231 25.4755 12.9918 25.3735 12.7833C25.277 12.5598 25.3369 12.3801 25.2916 12.142C25.2463 11.904 25.2575 11.5475 25.1891 11.265C25.1703 11.1547 25.1128 10.8014 25.1306 10.7675C25.1585 10.6887 25.2647 10.77 25.3166 10.6786C25.3943 10.5941 25.047 9.69818 24.8709 9.44234C24.8076 9.32763 24.6925 9.36694 24.5507 9.55341C24.4191 9.67619 24.4679 9.95609 24.5182 10.2223C24.856 11.9804 25.108 13.5717 25.0531 15.2453C25.0362 15.3876 25.5514 14.8209 25.5479 14.5522ZM23.0515 12.3717C22.8389 12.3678 22.3938 11.9593 22.2639 11.72C22.2148 11.5827 22.2463 11.4488 22.2896 11.3704C22.3683 11.3193 22.4894 11.262 22.5798 11.317C22.5798 11.317 22.6737 11.4479 22.6555 11.4645C22.7716 11.52 22.8208 11.4881 22.8326 11.441C22.8405 11.3586 22.7983 11.3095 22.7978 11.2187C22.847 10.9726 23.1292 10.9344 23.2354 11.0913C23.3132 11.187 23.3417 11.3903 23.3535 11.5276C23.3522 11.5977 23.2383 11.5154 23.1737 11.5323C23.1089 11.5492 23.0933 11.6237 23.0883 11.691C23.0766 11.8695 23.0554 12.1559 23.0515 12.3717V12.3717ZM19.1293 14.9889C19.1878 14.4538 19.1077 13.5008 19.1023 13.1851C19.0808 12.4392 18.9587 10.9985 18.9005 10.7578C18.835 10.3041 19.0876 10.8076 19.0526 10.5438C18.9707 10.0908 18.7187 9.78366 18.4224 9.36868C18.3268 9.23366 18.3301 9.20616 18.1826 9.40178C18.0194 9.77092 18.1603 10.0249 18.2025 10.3124C18.4161 11.2492 18.5408 12.1111 18.5988 12.9632C18.6569 13.8153 18.6747 14.7366 18.6217 15.634C18.7818 15.6403 19.0393 15.3757 19.1293 14.9888V14.9889Z" fill="white"/>
<path id="Vector_8" fill-rule="evenodd" clip-rule="evenodd" d="M26.2713 14.1323C25.8965 13.5054 25.3311 12.8263 25.18 12.5739C25.0289 12.3214 23.7512 10.6776 23.5884 10.5126C23.121 10.023 23.8028 10.4329 23.4989 10.0547C23.2419 9.77334 23.1669 9.68503 22.947 9.51581C22.8367 9.44476 22.7698 9.30903 22.7336 9.54031C22.7192 9.7435 22.7041 9.97859 22.7178 10.1498C22.717 10.245 22.8165 10.4239 22.9018 10.5293C24.0351 11.9177 25.2712 13.3352 26.2663 15.1174C26.4079 15.0425 26.3608 14.2426 26.2713 14.1323Z" fill="white"/>
<path id="Vector_9" fill-rule="evenodd" clip-rule="evenodd" d="M9.26919 12.975C9.24221 13.0222 9.18215 13.0832 9.2023 13.1464C9.24434 13.2033 9.27798 13.2148 9.34809 13.2179C9.40892 13.2179 9.49388 13.2323 9.51217 13.1965C9.54494 13.1605 9.56978 13.0871 9.54253 13.0178C9.47919 12.86 9.30228 12.9188 9.26919 12.975Z" fill="#1BA400"/>
<path id="Vector_10" fill-rule="evenodd" clip-rule="evenodd" d="M21.9143 22.1136C22.4155 22.1321 22.7435 22.1365 23.1892 22.1893C23.1892 22.1893 23.5736 22.1515 23.7108 22.1308C24.2911 22.0756 24.3167 22.9571 24.3167 22.9571C24.3104 23.474 24.1103 23.5011 23.8548 23.5557C23.7088 23.5742 23.6321 23.4685 23.5554 23.356C23.4591 23.3962 23.3282 23.4019 23.1697 23.38C22.9608 23.3669 22.752 23.3678 22.5432 23.3548C22.3213 23.3353 22.2033 23.3778 21.9814 23.3583C21.9357 23.4299 21.8763 23.5291 21.7406 23.4972C21.6277 23.4847 21.4939 23.1687 21.5333 22.9284C21.6148 22.7562 21.5925 22.8116 21.5839 22.7358C19.5349 22.6838 17.4663 22.5927 15.4563 22.6188C13.8838 22.6253 12.3306 22.6903 10.7775 22.7554C9.94883 22.7424 9.31587 22.6123 8.87866 21.9746C8.91781 21.9746 10.9929 22.0917 11.5998 22.0527C12.7222 22.0396 13.7467 21.9486 14.8886 21.916C17.1399 21.955 19.3717 21.9551 21.6229 22.1112C21.4075 21.9643 21.3998 21.6173 21.7313 21.5325C21.7594 21.5132 21.774 21.705 21.8235 21.7014C22.0887 21.6816 21.9724 22.0398 21.9141 22.1136L21.9143 22.1136ZM12.8758 9.74046C12.5347 10.7128 13.0713 11.7764 13.4434 11.6728C13.7118 11.7836 13.8827 11.2744 13.9926 10.7166C14.0678 10.56 14.1246 10.5434 14.1632 10.6238C14.1533 11.3656 14.2167 11.53 14.408 11.7551C14.8346 12.0834 15.1876 11.7971 15.2153 11.7694L15.5475 11.4382C15.6214 11.3606 15.7199 11.3561 15.8243 11.4244C15.9258 11.5164 15.9116 11.6753 16.1288 11.7855C16.3118 11.8584 16.7027 11.8023 16.7934 11.6452C16.9152 11.4369 16.9445 11.3654 17.001 11.2864C17.0879 11.1709 17.2363 11.2222 17.2363 11.2587C17.2224 11.3231 17.1354 11.3876 17.1948 11.5036C17.2982 11.5809 17.3221 11.5312 17.3834 11.514C17.5998 11.4108 17.7623 10.9413 17.7623 10.9413C17.7719 10.7666 17.6737 10.7811 17.6101 10.8171C17.527 10.8677 17.5216 10.8839 17.4385 10.9345C17.3327 10.9502 17.1274 11.0201 17.0259 10.8634C16.9222 10.675 16.9208 10.4121 16.8416 10.2221C16.8416 10.2082 16.7041 9.92274 16.8321 9.90445C16.8966 9.91642 17.0344 9.95279 17.0563 9.8371C17.1241 9.72429 16.9113 9.40491 16.7657 9.24359C16.6393 9.10519 16.4641 9.08853 16.295 9.22982C16.1766 9.33843 16.1937 9.45979 16.1704 9.57483C16.1403 9.70692 16.1467 9.86944 16.2812 10.0442C16.3993 10.2765 16.615 10.5757 16.5442 10.9965C16.5442 10.9965 16.4182 11.1953 16.1988 11.1693C16.1073 11.1494 15.959 11.1107 15.8797 10.5272C15.8197 10.0855 15.8939 9.46752 15.7059 9.17782C15.638 9.00289 15.5884 8.83395 15.4229 9.13318C15.3784 9.25067 15.1876 9.42898 15.326 9.79572C15.4393 10.0282 15.4853 10.4066 15.434 10.8277C15.3555 10.9473 15.3381 10.9878 15.2352 11.1075C15.0907 11.2624 14.9339 11.2228 14.8138 11.165C14.7016 11.0896 14.6138 11.0506 14.5625 10.811C14.5718 10.4292 14.5931 9.8041 14.5231 9.67153C14.4199 9.46616 14.2498 9.54043 14.177 9.60249C13.8277 9.92094 13.6552 10.4583 13.5497 10.8861C13.4528 11.198 13.3497 11.1086 13.2772 10.9828C13.1009 10.8179 13.0889 9.52856 12.8758 9.74057V9.74046Z" fill="white"/>
<path id="Vector_11" fill-rule="evenodd" clip-rule="evenodd" d="M13.9026 11.8539C14.0576 11.7444 13.9851 11.668 14.2168 11.8989C14.5069 12.3934 14.6934 13.0338 14.7213 13.6012C14.7091 13.741 14.8079 13.8295 14.8531 13.7991C14.88 13.4709 15.6805 13.0135 16.4146 12.9467C16.5268 12.9223 16.4722 12.7078 16.4905 12.5985C16.4465 12.1921 16.7195 11.8222 17.1022 11.7927C17.623 11.8694 17.7964 12.1467 17.8051 12.5699C17.7489 13.3823 16.9001 13.52 16.4232 13.5848C16.35 13.6124 16.3196 13.6461 16.4232 13.6859L18.4214 13.6949L18.5233 13.7536C18.5356 13.8011 18.4942 13.7615 18.4153 13.891C18.3365 14.0206 18.2201 14.3192 18.2141 14.5187C17.6188 14.7096 17.003 14.7932 16.3772 14.8686C16.1597 14.9783 16.0519 15.1244 16.0966 15.2888C16.1698 15.4712 16.6514 15.6534 16.6514 15.662C16.7428 15.7192 16.8511 15.8527 16.6255 16.1262C15.6508 16.0834 14.8955 15.6698 14.634 15.086C14.5552 15.0251 14.4704 15.0857 14.416 15.1646C14.0354 15.6537 13.661 16.0942 13.0122 16.328C12.6253 16.4244 12.2293 16.2689 12.0422 16.0162C11.917 15.8725 11.9217 15.7137 11.8758 15.6793C11.6666 15.7715 9.86718 16.5339 10.0953 16.1788C10.5332 15.7113 11.2914 15.3681 11.961 14.9068C12.0093 14.7522 12.0972 14.2294 12.3616 14.059C12.3769 14.0603 12.3197 14.3661 12.3255 14.495C12.3285 14.6009 12.3177 14.6424 12.3409 14.6152C12.3861 14.5864 13.1986 13.9498 13.2614 13.7546C13.3406 13.6427 13.2851 13.3592 13.2851 13.3506C13.1328 12.959 12.919 12.9258 12.8398 12.7312C12.7685 12.4728 12.8007 12.1778 12.9489 12.0956C13.0805 11.9765 13.2363 11.9912 13.38 12.1213C13.5441 12.2679 13.6899 12.5543 13.732 12.7677C13.7038 12.8521 13.5173 12.7116 13.4525 12.7536C13.5671 12.8718 13.6206 13.0083 13.662 13.1752C13.7678 13.6221 13.7355 13.7959 13.629 14.0849C13.2683 14.8411 12.8072 15.0668 12.4039 15.3469C12.3931 15.3508 12.386 15.5389 12.5377 15.6406C12.59 15.6953 12.8004 15.7234 13.0478 15.6444C13.5258 15.3845 14.0221 14.9056 14.2684 14.3722C14.34 13.9687 14.2408 13.5408 14.1355 13.1676C13.977 12.8029 13.7903 12.2822 13.7903 12.2736C13.7842 12.0462 13.8027 11.9673 13.9028 11.8539H13.9026ZM8.6711 9.75065C8.90108 9.86003 9.33349 9.81348 9.3152 9.44369C9.3152 9.41102 9.30684 9.30039 9.30357 9.27039C9.25661 9.16139 9.12856 9.18834 9.09951 9.30088C9.09039 9.33773 9.11578 9.39779 9.08231 9.4163C9.06309 9.43563 8.9896 9.42425 8.99265 9.32211C8.99265 9.28955 8.96863 9.2546 8.9541 9.23391C8.93958 9.22443 8.93035 9.22182 8.90403 9.22182C8.87193 9.22307 8.87247 9.2314 8.85489 9.2583C8.84741 9.28563 8.83714 9.31236 8.83714 9.3434C8.8331 9.37977 8.81934 9.39272 8.79253 9.39811C8.76256 9.39811 8.76933 9.40138 8.74503 9.38597C8.73061 9.37018 8.71259 9.3642 8.71259 9.33735C8.71259 9.30953 8.70626 9.26451 8.69785 9.24616C8.68513 9.22939 8.66465 9.22166 8.64161 9.21572C8.51602 9.21616 8.50729 9.35902 8.51455 9.41325C8.5051 9.42349 8.4998 9.67976 8.6711 9.75065Z" fill="white"/>
<path id="Vector_12" fill-rule="evenodd" clip-rule="evenodd" d="M15.4135 12.5965C15.6435 12.7058 16.191 12.6429 16.0576 12.2895C16.0576 12.2568 16.0493 12.1461 16.046 12.1162C15.999 12.0072 15.871 12.0342 15.8419 12.1467C15.8328 12.1835 15.8582 12.2436 15.8247 12.2621C15.8055 12.2814 15.732 12.2701 15.7351 12.1679C15.7351 12.1354 15.7111 12.1004 15.6965 12.0797C15.682 12.0702 15.6728 12.0676 15.6465 12.0676C15.6144 12.0689 15.6149 12.0772 15.5973 12.1041C15.5898 12.1314 15.5796 12.1582 15.5796 12.1892C15.5755 12.2256 15.5618 12.2385 15.535 12.2439C15.505 12.2439 15.5118 12.2472 15.4875 12.2318C15.473 12.216 15.455 12.21 15.455 12.1832C15.455 12.1553 15.4487 12.1103 15.4403 12.092C15.4276 12.0752 15.4071 12.0675 15.384 12.0615C15.2585 12.062 15.2497 12.2048 15.257 12.2591C15.2475 12.2693 15.2422 12.5256 15.4135 12.5965ZM19.345 11.4188C19.575 11.5282 20.0074 11.4816 19.9891 11.1119C19.9891 11.0792 19.9807 10.9686 19.9774 10.9386C19.9305 10.8296 19.8024 10.8565 19.7734 10.969C19.7643 11.0059 19.7897 11.066 19.7562 11.0845C19.737 11.1038 19.6635 11.0924 19.6665 10.9903C19.6665 10.9577 19.6425 10.9228 19.628 10.9021C19.6135 10.8926 19.6042 10.89 19.5779 10.89C19.5458 10.8912 19.5463 10.8996 19.5288 10.9265C19.5213 10.9538 19.511 10.9805 19.511 11.0116C19.507 11.0479 19.4932 11.0609 19.4664 11.0663C19.4364 11.0663 19.4432 11.0695 19.4189 11.0541C19.4045 11.0384 19.3864 11.0324 19.3864 11.0055C19.3864 10.9777 19.3801 10.9327 19.3717 10.9143C19.359 10.8976 19.3385 10.8898 19.3155 10.8839C19.1899 10.8843 19.1812 11.0272 19.1884 11.0814C19.179 11.0917 19.1737 11.3479 19.345 11.4188ZM21.3811 14.3768C20.9803 14.8272 21.157 15.5722 21.2476 15.7327C21.3797 15.9963 21.4861 16.1653 21.7433 16.2957C21.9775 16.4676 22.16 16.3602 22.2606 16.2398C22.4963 15.9963 22.4991 15.3745 22.6097 15.2513C22.6873 15.0249 22.8827 15.0636 22.9776 15.1639C23.0695 15.2956 23.1777 15.3806 23.3128 15.4523C23.5326 15.6457 23.7951 15.681 24.0538 15.5048C24.2305 15.4059 24.3454 15.2782 24.4489 15.0247C24.5638 14.7181 24.4997 13.3016 24.4768 12.462C24.4679 12.3962 24.2483 11.3075 24.2483 11.2954C24.2483 11.2832 24.2192 10.7398 24.1951 10.6103C24.1909 10.5578 24.1778 10.5427 24.233 10.5493C24.2916 10.5985 24.2996 10.6016 24.3362 10.6178C24.3953 10.6285 24.4482 10.5282 24.4125 10.4359L23.8639 9.42689C23.8198 9.38366 23.763 9.33618 23.6931 9.43908C23.6264 9.49739 23.5554 9.60296 23.5576 9.73869C23.5738 9.97782 23.616 10.2211 23.6322 10.4603L23.8517 11.6881C23.9208 12.5634 23.9381 13.2797 24.0072 14.155C23.9975 14.5256 23.882 14.8487 23.7736 14.8953C23.7736 14.8953 23.6087 14.9906 23.4981 14.8853C23.4177 14.8532 23.0958 14.3504 23.0958 14.3504C22.9312 14.2 22.8227 14.243 22.7056 14.3504C22.3827 14.6613 22.2365 15.243 22.0171 15.6442C21.9605 15.7337 21.8006 15.8104 21.6234 15.6377C21.1734 15.0247 21.4372 14.1526 21.3811 14.3768ZM19.4482 9.27204C19.6542 9.35807 19.7995 9.77419 19.7521 9.97738C19.7111 10.2288 19.6019 10.5002 19.5233 10.4649C19.4379 10.4333 19.5815 10.215 19.4994 9.98598C19.4538 9.83691 19.1727 9.56452 19.2023 9.48422C19.1442 9.31598 19.3218 9.24237 19.4482 9.27204Z" fill="white"/>
<path id="Vector_13" fill-rule="evenodd" clip-rule="evenodd" d="M22.0441 14.6238C22.0874 14.124 22.0143 13.8193 22.0013 13.5256C21.9883 13.2318 21.6681 10.9906 21.6032 10.7684C21.5248 10.3482 21.9144 10.712 21.8718 10.4676C21.7371 10.1595 21.4016 9.71086 21.2963 9.44321C21.233 9.32855 21.2595 9.22652 21.1177 9.41304C20.9861 9.84185 20.9405 10.1924 20.9907 10.4587C21.3286 12.2167 21.6751 13.6785 21.6201 15.3521C21.7803 15.3532 21.965 14.9866 22.0441 14.6238V14.6238ZM25.5644 9.98069C25.7522 10.0738 25.8622 10.5953 25.8415 10.7443C25.8041 11.0165 25.7044 11.3104 25.6329 11.2721C25.555 11.2379 25.6485 10.8685 25.611 10.7536C25.5696 10.5923 25.3132 10.2974 25.3402 10.2104C25.2873 10.0283 25.4492 9.94862 25.5644 9.98069ZM11.6039 13.6786C11.7836 13.747 11.889 14.1302 11.8691 14.2398C11.8333 14.4397 11.7379 14.6557 11.6694 14.6276C11.595 14.6024 11.6844 14.331 11.6486 14.2466C11.6335 14.0419 11.3841 13.9359 11.3893 13.8474C11.3428 13.6849 11.4936 13.655 11.6039 13.6787V13.6786Z" fill="white"/>
<path id="Vector_14" fill-rule="evenodd" clip-rule="evenodd" d="M15.945 14.2541C16.1769 14.2688 16.2928 14.4502 16.0755 14.5263C15.8613 14.5994 15.6554 14.6566 15.6544 14.9653C15.7337 15.3956 15.5457 15.2479 15.4336 15.1895C15.3015 15.0949 14.9308 14.8672 14.8779 14.3755C14.87 14.2582 14.9617 14.1595 15.1094 14.1602C15.3319 14.2204 15.6602 14.2248 15.9449 14.2541H15.945Z" fill="#1B9D00"/>
<path id="Vector_15" fill-rule="evenodd" clip-rule="evenodd" d="M6.80128 9.14765C7.06638 9.22736 7.08205 9.61588 7.0625 9.72945C7.02718 9.93678 6.93326 10.1607 6.86582 10.1315C6.79244 10.1055 6.86293 9.82402 6.82771 9.73648C6.7884 9.61354 6.56441 9.3889 6.5898 9.32269C6.53995 9.18391 6.69262 9.12315 6.80128 9.14765ZM12.0367 10.9792C11.8333 11.0889 11.7544 11.4158 11.8811 11.6063C11.9994 11.774 12.1862 11.7118 12.2111 11.7118C12.4104 11.7367 12.5286 11.3393 12.5286 11.3393C12.5286 11.3393 12.5349 11.2276 12.2982 11.4387C12.1986 11.4573 12.1862 11.42 12.1613 11.3641C12.1405 11.2607 12.1447 11.1572 12.1924 11.0537C12.2277 10.9544 12.1508 10.9109 12.0367 10.9792ZM13.5623 8.99738C13.4601 9.06571 13.2567 9.27587 13.2504 9.51804C13.2443 9.65465 13.2188 9.65421 13.3084 9.74116C13.3732 9.83437 13.4386 9.82598 13.5694 9.75766C13.6446 9.70245 13.6699 9.66581 13.6953 9.57325C13.7264 9.41808 13.5307 9.64686 13.5058 9.47416C13.4622 9.31376 13.5879 9.2481 13.7062 9.09294C13.7101 8.9866 13.7078 8.91131 13.5623 8.99738ZM14.7914 9.21516C14.7474 9.31219 14.6946 9.81912 14.7034 9.81912C14.6682 9.97016 14.8619 10.0348 14.95 9.84063C15.082 9.48472 15.082 9.33375 15.0908 9.18272C15.0497 8.95274 14.8942 8.95993 14.7914 9.21516ZM22.5407 13.1472C22.5672 13.1208 23.6327 12.3657 23.6327 12.3657C23.7413 12.3277 23.7178 12.755 23.6679 12.7521C23.6885 12.8369 22.6171 13.5628 22.5407 13.5335C22.4879 13.5716 22.435 13.2409 22.5407 13.1472H22.5407ZM23.5121 13.1407C23.7 13.2338 23.7748 13.7816 23.754 13.9307C23.7607 14.2204 23.573 14.4528 23.5014 14.4146C23.4235 14.3804 23.5082 14.0548 23.4708 13.94C23.4293 13.7786 23.2698 13.4749 23.2967 13.3879C23.2438 13.2058 23.3969 13.1086 23.5121 13.1407ZM17.1743 15.5003C17.2484 15.3923 17.4774 15.2368 17.4826 15.2368C17.5882 15.1841 17.6914 15.2782 17.6851 15.272C17.7027 15.3774 17.6183 15.4754 17.6447 15.6159C17.6678 15.6726 17.6847 15.7355 17.7888 15.7115C17.958 15.5788 18.1148 15.5702 18.2839 15.5618C18.4136 15.5696 18.4187 15.7884 18.3367 15.7901C18.0243 15.8577 17.8843 15.9411 17.6613 16.026C17.5556 16.0875 17.4649 16.0095 17.4649 16.0008C17.4649 15.992 17.4031 15.941 17.4463 15.8014C17.4539 15.6894 17.4087 15.6281 17.3152 15.6408C17.2448 15.6788 17.1827 15.7039 17.1475 15.6232C17.1337 15.5636 17.1291 15.5346 17.1743 15.5003ZM24.6332 15.7954C24.6788 15.8533 24.7083 15.907 24.6295 16.0021C24.5547 16.0704 24.5021 16.108 24.4274 16.1763C24.3921 16.2363 24.3695 16.3273 24.4775 16.3563C24.6768 16.4122 25.1375 16.1142 25.1375 16.108C25.2123 16.0521 25.1874 15.9465 25.1811 15.9465C25.1375 15.8969 25.0393 15.9264 24.9733 15.9183C24.9419 15.9183 24.8387 15.9028 24.8878 15.8117C24.9288 15.7551 24.9435 15.7204 24.9713 15.6506C25.0024 15.5824 24.9756 15.5368 24.8635 15.4995C24.7494 15.4789 24.7038 15.4892 24.5771 15.4995C24.5087 15.514 24.4853 15.5446 24.4728 15.6273C24.4777 15.7529 24.5543 15.7457 24.6332 15.7954Z" fill="white"/>
<path id="Vector_16" fill-rule="evenodd" clip-rule="evenodd" d="M17.2144 12.7065C17.1852 12.7568 17.0864 12.7544 16.9938 12.701C16.9012 12.6477 16.8498 12.5635 16.879 12.513C16.9082 12.4626 17.007 12.4651 17.0996 12.5186C17.1922 12.5721 17.2436 12.6561 17.2144 12.7065ZM12.3508 9.78855C12.2954 9.80205 12.2231 9.75283 12.1892 9.67863C12.1553 9.60442 12.1727 9.53331 12.2281 9.51981C12.2834 9.50631 12.3558 9.55547 12.3897 9.62968C12.4236 9.70389 12.4062 9.77505 12.3508 9.78855Z" fill="#259F00"/>
<path id="Vector_17" fill-rule="evenodd" clip-rule="evenodd" d="M21.9727 22.7905C22.4833 22.8154 22.963 22.7963 23.4736 22.8212C23.5661 22.8996 23.5 23.092 23.4384 23.0783C23.2724 23.0741 23.1767 23.07 23.0107 23.0658C23.005 22.9037 22.5899 22.9302 22.6019 23.071C22.3777 23.0979 22.1756 23.0632 21.9514 23.0549C21.8851 22.9727 21.8936 22.8245 21.9727 22.7905H21.9727Z" fill="#209000"/>
</g>
</g>
</svg>
